# xmcd
#
# Track frame offsets:
#  150
#  20128
#  40745
#  71335
#  89204
#  106054
#  123167
#  141062
#  159670
#  176470
#  193013
#  210817
#  226760
#  241700
#  262316
#  282180
#  303712
#
# Disc length: 4398 seconds
#
# Revision: 0
# Processed by: cddbd v1.5.1PL0 Copyright (c) Steve Scherf et al.
# Submitted via: Collectorz.com Music Collector 6.9
#
DISCID=e8112c11
DTITLE=Diverse kunstnere - Universal Music Sampler 2004/2
DYEAR=2004
DGENRE=HipHopPop'n'Rock
TTITLE0=Scissor Sisters - Comfortably Numb
TTITLE1=Scissor Sisters - Take Your Mama Out
TTITLE2=Guns N' Roses - Paradise City
TTITLE3=Limp bizkit - Build a Bridge
TTITLE4=Rapture - Sister Saviour
TTITLE5=Black Eyed Peas - Hey Mama
TTITLE6=Sugababes - In the Middle
TTITLE7=Ronan Keating - She Believes (in Me)
TTITLE8=Enrique - Not in Love
TTITLE9=Girls Aloud - Jump
TTITLE10=Christina Milian - Fabolous - Dip It Low
TTITLE11=Fatman Scoop - It Takes Scoop
TTITLE12=50 Cent - If I Can't
TTITLE13=Lionel Richie - Just for You
TTITLE14=Anders Widmark trio - Truck Driver
TTITLE15=Anders Widmark trio - Sixteen Weeks
TTITLE16=Anders Widmark trio - You Don't Have To Say
EXTD=
EXTT0=
EXTT1=
EXTT2=
EXTT3=
EXTT4=
EXTT5=
EXTT6=
EXTT7=
EXTT8=
EXTT9=
EXTT10=
EXTT11=
EXTT12=
EXTT13=
EXTT14=
EXTT15=
EXTT16=
PLAYORDER=
